<svg version="1.1" id="Capa_1" xmlns="http://www.w3.org/2000/svg" x="0" y="0" viewBox="0 0 100 100" style="enable-background:new 0 0 100 100" xml:space="preserve"><style>.st2{fill:#fff}</style><g style="opacity:.65"><path class="st2" d="M23.9 40.5c0-.7.3-1.4.9-1.9 1-.8 2.5-.6 3.3.4l20.2 25.4L68.5 39c.8-1 2.3-1.2 3.3-.4 1 .8 1.2 2.3.4 3.3l-22 27.8c-.5.6-1.1.9-1.9.9-.7 0-1.4-.3-1.9-.9L24.4 42c-.3-.5-.5-1-.5-1.5z"/><path class="st2" d="M23.9 21.4c0-.7.3-1.4.9-1.9 1-.8 2.5-.6 3.3.4l20.2 25.4 20.2-25.4c.8-1 2.3-1.2 3.3-.4 1 .8 1.2 2.3.4 3.3l-22 27.8c-.5.6-1.1.9-1.9.9-.7 0-1.4-.3-1.9-.9l-22-27.8c-.3-.4-.5-.9-.5-1.4z"/></g></svg>