<svg version="1.1" id="Capa_1" xmlns="http://www.w3.org/2000/svg" x="0" y="0" viewBox="0 0 25 25" style="enable-background:new 0 0 25 25" xml:space="preserve"><style>.st0{fill-rule:evenodd;clip-rule:evenodd;fill:#fff}</style><path class="st0" d="M5.2 20.4c0 .1-.1 0 0 0-.1-.1-.2-.1-.2-.2l-.1-.1c-.1-.1-.2-.1-.2-.2 0 0-.1-.1 0-.1s0 0-.1-.1-.1-.2-.2-.2c-.1-.2-.1-.1-.1-.2s-.2-.3-.1-.2c0 0 0-.1-.1-.2l-.1-.2c-.1-.1-.2-.3-.3-.5-.1-.1-.1-.2-.2-.3l-.1-.1c-.1-.1-.1-.2-.2-.3 0-.1-.1-.2-.1-.2 0-.3-.1-.5-.2-.7 0-.1-.1-.2-.1-.4 0-.1-.1-.2-.1-.3 0-.1-.1-.2-.1-.3-.1-.4-.2-.8-.2-1.2-.1-.4-.1-.8-.1-1.1v-.7c0-.3 0-.6.1-1 0-.1 0-.2.1-.4V11c0-.1.1-.3.1-.4v-.4c0-.1.1-.3.1-.4.2-.1.2-.3.3-.5 0 0 0-.1.1-.1.1-.2.2-.5.3-.7v-.1c0-.1.1-.1.1-.2v-.1c.1-.1.2-.3.3-.4l.1-.1c.1-.3.3-.6.5-.8l.1-.1s0-.1.1-.1l.1-.1c.1-.2.2-.3.3-.4l.3-.3.1-.1.3-.3.3-.3c.2-.2.5-.4.7-.6.3-.2.6-.3.8-.5.1 0 .2-.1.2-.1.3-.2.4-.2.2-.2.1 0 .2-.1.2-.1l.1-.1c.3-.1.6-.2.8-.3.3-.1.5-.2.8-.2.3-.1.5-.1.8-.2.1 0 .2 0 .4-.1H14.5c.2 0 .4.1.6.1h.1c.3.2.4.2.5.2h.6s.1 0 0 0h-.1.2c.1 0 .1 0 .2.1.1 0 .1 0 .2.1.1 0 .2.1.2.1s.1 0 .1.1c0 0 .1 0 .1.1.1 0 .1.1.2.1s.2.1.2.1l.1.1c.2.1.4.3.7.4.1 0 .2.1.2.2.1.1.2.2.3.2h.1c.1.1.2.1.3.3l.6.6.1.1c.2.2.4.4.5.6l.1.1c.1.1.2.3.3.4l.1.1c0 .1.1.1.1.2s.1.1.2.2c0 .1.1.2.2.3 0 .1.1.1.1.2.3.1.4.3.5.5l.1.3.1.1c0 .1.1.1.1.2s0 .1.1.2c0 .1.1.2.1.3.1.3.2.5.2.7s.1.3.1.5c0 .1.1.2.1.4v.4c0 .2.1.4.1.6v2c0 .2-.1.5-.1.7 0 .3-.1.6-.2.9-.1.2-.1.4-.1.5-.1.3-.2.5-.3.8 0 0 0 .1-.1.1l-.3.6c-.1.1-.1.3-.2.4-.2.3-.3.6-.6.9-.1.1-.1.1-.1.2l-.2.2v.1l-.3.3c-.1.2-.3.3-.4.5-.2.2-.4.3-.6.5-.1.1-.3.2-.4.3l-.8.6s-.1 0-.1.1l-.1.1c-.1.1-.2.1-.4.2-.1 0-.2.1-.3.1-.1 0-.2.1-.3.1-.2.1-.5.2-.7.3-.1 0-.2.1-.3.1h-.1c-.3.1-.7.2-1 .3-.2 0-.4.1-.6.1l-.5.2h-2.6c-.4-.1-.8-.1-1.1-.2-.1 0-.1 0-.2-.1l-.2-.1c-.2-.1-.3-.1-.5-.2-.1 0-.2-.1-.2-.1-.1 0-.2-.1-.3-.1l-.9-.2c-.1 0-.2-.1-.3-.2-.3-.2-.6-.3-.8-.4-.2-.1-.2-.2-.3-.1h-.1c-.1-.1-.1-.1-.1 0l-.2-.1s0 .1-.1 0c.1.1-.1 0 0 .1H6c.1.1.1.1 0 .1 0 0-.1 0 .1.1l.1.1c-.1 0 0 0 0 .1 0 0 .1.1.3.2l.2.1.1.1.2-.1c.2.1.4.2.5.3l.6.3c.3.1.6.3.9.4h.1c.2.1.4.1.6.2.2.1.4.1.6.2.1 0 .2.1.3.1.4.1.8.1 1.2.2h2.3c.2 0 .5-.1.8-.1.2-.1.5-.1.7-.2H15.9h-.2c-.1 0-.2 0-.2.1-.1 0-.3.1-.5.1h-.1c-.1 0-.4.1-.6.1H13.7c-.4 0-.8.1-1.3 0h-1.3c-.3 0-.6-.1-1-.2H9.8h.1-.5l-.2-.1c-.1 0-.1-.1-.2-.1s-.2-.1-.2-.1h-.1c-.1 0-.3-.1-.5-.2l-.1-.1c-.1 0-.2-.1-.3-.1-.2-.1-.3-.2-.5-.3 0 0-.1-.1-.2-.1-.1-.1-.3-.2-.5-.3h-.1c-.2-.2-.5-.4-.7-.6 0 0-.1-.1-.2-.1-.2-.4-.3-.5-.3-.5l-.1-.1s-.1 0-.2-.2c-.1 0-.1-.1 0 0h-.2v.3h-.1l.1.1.2.2.3.3c.2.2.4.4.7.6.2.2.5.4.7.5.1 0 .1.1.2.1l.3.2c.1.1.2.1.4.2 0 0 .1 0 .1.1l.8.4.8.3h.1c.6.1 1.1.3 1.6.4h.5-.1.1c.6 0 1.1.1 1.7.1H14.1l.6-.1c.1 0 .2 0 .3-.1.2 0 .4-.1.5-.1-.1 0-.1 0-.1.1h-.1.1-.2.1c-.1 0-.2.1 0 0H15.9c.1 0 .3-.1.3-.1.1 0 .2-.1.2-.1h-.1c-.2.1 0 0 0 0h.1c.2-.1.5-.2.8-.3.2 0 .4-.1.6-.2.1 0 .2-.1.3-.1h.1c.1 0 .2-.1.4-.2.1 0 .1-.1.2-.1l.1-.1c.1 0 .1-.1.2-.1l.1-.1c-.2.1-.4.2-.6.4 0 0-.1 0-.1.1h-.1c.1 0 .1-.1.2-.1l.6-.4c.2-.1.4-.2.5-.3l.1-.1.4-.3c.1-.1.1-.1.2-.1s.1-.1.2-.2c.1 0 .1-.1.2-.1l.1-.1.1-.1c.2-.1.3-.3.5-.4l.4-.5c.1-.1.2-.2.3-.4.2-.3.4-.5.6-.8.2-.2.3-.4.4-.6 0-.1.1-.1.1-.2s.1-.2.1-.2c0-.1.1-.2.1-.3.1-.2.2-.5.3-.7.2-.4.3-.8.4-1.2v-.1c.1-.5.3-1 .4-1.5v.4c0-.1 0-.1.1-.2l.1-.6V14c0-.3 0-.6.1-.9v-1.5l-.3-.6c0-.1 0-.3-.1-.4v-.1c0-.2-.1-.3-.1-.5-.1-.3-.1-.5-.2-.8-.1-.3-.2-.5-.3-.8 0-.1-.1-.1-.1-.2-.1-.2-.2-.3-.2-.5l-.3-.6-.1-.2s0-.1-.1-.1v-.1c-.1-.1 0-.1-.1-.2s0-.1-.1-.2c.1.1.1.1 0 0V6l.1.1c0-.1-.1-.1-.2-.2-.1-.2-.2-.3-.4-.5-.1-.1-.1-.2-.2-.2V5l-.1-.1c-.1-.1-.2-.2-.3-.4-.2-.2-.3-.4-.5-.5l-.1-.1-.1-.1-.1-.1-.2-.2c-.1-.1-.2-.1-.3-.2l-.4-.3c-.2-.1-.3-.3-.4-.3-.2-.1-.4-.3-.6-.4l-.3-.2c-.1 0-.1-.1-.2-.1-.1-.1-.2-.1-.3-.2h-.1c-.4-.2-.7-.4-1.1-.5-.1 0-.3-.1-.4-.1-.2-.1-.4-.1-.6-.2-.1 0-.3-.1-.4-.1h-.2l-.3-.1c-.1 0-.2 0-.3-.1H14c-.4 0-.7 0-1-.1h-1.6c-.5.1-.9.1-1.4.2H9.7c-.5.1-.9.3-1.2.4h-.2l-.3.2c-.2.1-.5.2-.7.3-.1 0-.2.1-.4.2s-.4.2-.7.4c0 0-.1 0-.1.1-.1 0-.2.1-.3.2-.1 0-.2.1-.3.1-.2.2-.3.3-.5.4l-.2.2c-.2.1-.5.4-.7.6l-.3.3L3 5v.1c-.3.3-.4.6-.6.8 0 .1-.1.1-.1.2s-.1.1-.1.2c-.2.2-.3.3-.3.4l-.1.1-.1.2c-.1.3-.3.5-.4.8 0 .1-.1.2-.1.3 0 0 0 .1-.1.2l-.4 1c-.1.3-.1.6-.2.8v.1l-.3 1.5V14c0 .4.1.8.2 1.2 0 .1 0 .2.1.3l.1.5c.1.4.2.7.4 1.1 0 .1.1.2.1.3 0-.1.1.1.1.1 0 .1 0 .1.1.2l.1.1.1.1v.1c0 .1 0 .1.1.1l.2.2c0-.1 0-.1 0 0 .1.1.1.1 0 0v-.1c.1.1-.1-.2-.1-.3 0 0-.1-.2-.1-.3-.1-.2-.2-.5-.2-.7-.1-.2 0-.2 0-.2v-.5c0-.1-.1-.3-.1-.5-.2-.3-.3-.6-.3-.8 0-.1-.1-.4-.1-.6v-2.5c0-.3.1-.5.1-.8v-.8c.1-.3.1-.5.2-.7 0-.1.1-.3.1-.4v.5c-.1.3-.1.5-.2.8s-.1.7-.1 1v1.8s0 .1 0 0v.2c0 .1 0 .2.1.2V14.5c0 .1 0 0 0 0v.2c0 .1 0 .1 0 0v.1c0 .1.1.3.1.3 0 .1 0 .1.1.1v.1c0 .1 0 0 0 0s0-.1 0 0v-.2.1c0 .1.1.1 0 0 0 .1 0 .1.1.1v.1l.1.1.1.1v.1c0 .1 0 0 0 0 0 .1.1.3.1.4v.1c0 .1.1.3.1.4s.1.2.1.4c.2.3.3.7.5 1 .1.1.1.2.1.2l.1.1c.1.2.2.2.2.2l.1.1c.1.1.2.1.1.1v.1l.1.1c0 .1.1.1.2.2.1.2.2.3.4.5l.6.6c.8.2.8.2.9.2zm1.7 1s0 .1 0 0zm4.3 2.9zm3.1 0zm6-2.1zM17.7 3.6zm1.4.9zM9.7 23.3zm4.2.4zm4.3-.2s.1 0 0 0zm1.9-1.2zM21.2 4zm-1.8-1.4s0-.1 0 0c0-.1 0-.1 0 0zm-8.1 20.5zM23 19zM1.5 14.7zm20.5 3c0 .1 0 .1 0 0zM8.4 23.1zm1.5.9zm1.4.2zm6-.3zM1.5 17.8zm6.9 5.3zm15.8-6.8zM14.8.9zM.8 14.4zm7.4 8.7zm-1.6-.9zm-1.2-.9zm2.7 1.9zM6 21.9zm1.8 1zm.8.4zm-.4 0zm-.2-.1zm-.4-.4zm1.4.6zm5.4.8zm5.4-21.3zM11.2.7zm-2.1.4zM.6 12.4zm.5-.7s0 .1 0 0c0 .1 0 0 0 0zm7-8.3zm13.7 3.9c-.1 0-.1 0 0 0-.1 0 0 0 0 0zm.1.1zM10 23.8zm2.3.3zm-.3.1zm12.5-13.1zM9.6 1zm4.2 23.1zm8.6-18.3zm-5.1-4.2zM.5 15.2zm4.8-9.7zm.5-2.7zM3.9 4.3zm-3 5.1zm1.4 6.2zM17.3 3zm4.6 4.2zM18.8 23zm3.5-3.4c.1 0 .1 0 0 0zM1.6 7.4zm5.7-3.6zm12.9-.5zM2.1 6.8zm-.8 4.4zM19 4.1zm4.4 10zM17 22.6zm.1 1.2zm7-13.8zm-23-1.1zm9-7.9zm8.6 20.9zm-1.3.6zM5.9 2.9zM2 7.2zm-.4.8zm16.9-5.6zm-9.3.2zm13.6 5.8zm.8 4.8zM18 23.1zm5.3-15.2s0-.1 0 0c0-.1 0-.1 0 0zm-6.7-6.2zM2.7 6.2zm1.3.4zm19.8 5.9zm-5.5 10s.1 0 0 0zm1.9-17.7zM23 17zm.2-.2zm-.2.8zm-2.5 3.3c.1 0 .1 0 0 0zm0 .2zm-.5.3zm1.9-1.8zm-.3.5zm2.5-6.9zm-9.6-12zm8.3 6.1zm-.4-.4zm.2.1zm1.4 3.7zm0 2.2zm-1.5-5.8zm0 0zm.7.9zm.3 2.1zm-.6-1.9zm-.4-1s0-.1-.1-.1l.1.1zM12.1 1.9c0-.1 0-.1 0 0zm6.1.9zM16.9 2c-.1 0-.1 0 0 0zM5.6 3.3zm13.9.4zm.7.5zm.1.1zm-.6-.5zm-.9-.9zm.3.1zm1.4 1.4zM5.1 4zM3.8 5.4c-.1 0-.1 0 0 0zM6 4.2zM3.6 6.4zm1-1.3zm.5-.3zm.7-1.4zm-.1.1zM3.8 6zm1.7-1.6c0-.1 0-.1 0 0 0-.1 0 0 0 0zm8.2-3zm-2 0zm.5.1zm-.6 0zm-1.9.3zm-.1 0zM5.3 4.2zm2.4-1.6zm.7-.4zm-1.1.5zm.3-.1zm0-.2zM6 3.8zm.1.1zm-.8.2zm1.1-1zm3.1-1.4zm1.3-.2zm4 .1zm-11 4.2zm.6-.8zm.2-.3zm.3-.3zm.6-.6zm9.1-2.3c.1.1.1.1 0 0 .1.1.1.1 0 0zm-4.4.4zm-1.1.2zM6.3 3.8l-.1.1.1-.1zM4.4 5.4s-.1 0 0 0c-.1 0 0 0 0 0zm-.5.9zm1.3-2.4zm.6-.5zm9.4-1.9zm-1.4.2zM5.2 3.9zm7.7-2.6zm-4.2 1zm-4 2.6zm-.1.2zM2.8 7.5zm.6-1.3zm5.5-4.5zm3.3-.5zm4.4 1zm-1.7-.4zm-.5 0zM6.3 4zm-.2.1zM3.2 7.2zM3.1 7zm.5-1.5zm5.5-3.9c.1-.1.1-.1 0 0zm.6-.2zm10 2zm.3.7zm-.5-.3zm-.2-.1zm-4.4-1.9zM7.3 3.2zM3.7 6.7c0 .1 0 .1 0 0 0 .1 0 0 0 0zm-.4-.3zm0-.2zm.1-.2zm17.2-1.2zm-1.2-1zm-.6-.4zm-6.2-1.6zm-.7 0zm-3.1.7zM6.4 4.1zM4.9 5.3zM2.6 8.2zm0-.6zm1.8-3zm5-2.2zM6.3 4.2zM3.9 6.5zM2.1 9.3zM3.6 5zM5 3.9zm3.1-2.2zm4.8-.5zm7.9 3.5zm.2.4zm1.6 1.6zm1.2 7.9zm-.1-1.7zM2 9.8zm0 .4zm-.1.3zM3 6.3s0-.1 0 0c0-.1 0 0 0 0zm1.3-1.8zm1.3-1.3c.1 0 0 0 0 0zM8 1.8zm.9-.3zm14.7 7.6zm.5 1.9zm-.1 3zm-.1 1zm-2.3 5.2zm1.9-5.5zm.1-4.2zM22.2 7zm-.9-1.4zm-3.8-2.9zm-2-.6zM8 2.8zM3 6.6zm2.5-3.3zM7.4 2zm11.5.7zm2.9 3.1zm.8 13zm-3.2 3.4zm-.8.6zM9.5 2.6c-.1 0 0 0 0 0zm-7.8 8.9zM2.3 8zm.6-1.3c.1 0 0 0 0 0zm-.1-.3zm3.6-3.7zm1.5-.9zm1.2-.4zm2.4-.3zm6.4 1.1zm3 2.3zm.8.8zM23 17.9zm-.6 1.2zm-1.2 1.6zm-.1.3s-.1 0 0 0c-.1 0 0 0 0 0zm-1.5 1zm4.1-9.7zm-.4-2.5zm-.1-.4zm-.8-2.1zm-1.5-1.9c0-.1 0-.1 0 0-.1-.1 0-.1 0 0zm-.5-.4zM15 2.1zm-4.4.2c-.1 0-.1 0 0 0zm-.1 0zm-1 .3c-.1 0 0 0 0 0zm-3 1.6zm-2.9 3zm-2 3.8zm1-4.4zM6 2.9zm2.4-1.4zm.9-.2zm5.1-.2zm9.8 12.7zm-.6 3.1zm-.6 1.2zm-1.5 2.4zm-3.3 2.6zm.2-1zm5-6.6zm.2-2.5zM17.8 2.9zM6.4 4.3zM4.6 5.8zm-3 7.5zm2.1-8.4zm18.1.4zm.6 1zm1.9 7.3zm-.1 0zm-.1 1.4zm-1.6-7.3zm0-.1zM8 3.3zM4.1 6.7zm-2.6 3.5zm.7-2zm-.4-.4zm0-.4c0-.1 0-.1 0 0 0-.1 0-.1 0 0zm5-5.1zm2.7-1.2zm2.4-.1zm6.6 1.3zm3.3 3zm-4.1 18.1zm.9-1.4zm3.4-3.6zM9.3 2.7c0 .1-.1.1 0 0zM2.4 9.9zm-.6-.7zm.5-1.9zm1.2-2.4zm2.8-2.4zM10.8.9zm.5 0zm1.8-.2zm3.7.9zM23 7zm1.4 6.2zM18.6 23zm-1.1-.3zm1.7-1.2zm2.4-2.2zm1.9-6.3zM20 4.8zM6.8 4.3zM5.1 5.5zm-2 2.8zM1.9 9zm.3-1.8zM1.1 9.1zm3.5-5.4zm.2-.2zm1.3-.7c0-.1 0-.1 0 0zm.4-.4zm1.2-.6zm1-.4zm4-.7h-.2.2zm3.8.8zm5.5 4zm2.4 5.8zm0 0zm-.2 3.9zm-.9 2.8zm-2.6 3.5zm-.5.4c0-.1 0-.1 0 0zM18.7 23zm-1.3.7zm-.6-1.1zm.2 0zm6-6.2zm-1.3-9.8zm-1.6-1.7zm-.4-.2zm-9.1-2.2zm-5.4 3zm-3.2 8zm-.1.2c0-.1 0-.1 0 0zm-.2.1c0-.1 0 0 0 0zM2 8.3zm-.2-.5zm-.6 1zM.8 9.9zm1-2.6c0-.1 0-.1 0 0zm1.9-2.7zm1.6-1.5zM11 .9zm4.7.4s-.1 0 0 0c-.1 0 0 0 0 0zm.6.2zm2.9 1.1c-.1 0 0 0 0 0zm2 1.7s0 .1 0 0c0 .1 0 .1 0 0zm3.4 9.6zm-7 9.8s-.1 0 0 0c-.1 0-.1 0 0 0-.1 0 0 0 0 0zm-.7-.7zm2-1.4c.1 0 0 0 0 0zm1.4-1.1zm2.8-4.8zm.4-3.5zm0-.2zm-4.1-7.5zm-5.9-2.1zM5 5.6c0-.1 0-.1 0 0zM.7 14.1zM3 5.2zm1.4-1.4zm3-2zM12 .6zm3.8.6zm8.5 9.3zm.1 4zm-.4 1.4zm-.6 2zm-.1.4zm-.2.3zm-3.9 4.1zm-2.4.4zm6.6-10zm-.1-2.4zM21.8 7zm-3.6-3.5zm-.1-.1zm-4.2-1zm-4.2.4zM2 12.5zm0-.2zm-.1.9zm-.5.5zM1.2 11zm-.4-.7zm-.1.9zm-.1 2.3zm.4 2.4zm-.3-.1c.1 0 0 0 0 0zm-.1-.2zM3.3 4.9zm2.5-2.1s.1 0 0 0zm0 0zm1.7-1zM9.7 1zm5.8.1zm8.2 7.1zm-7.3 15.9zm.4-.3zm-.1-1.2zm5.6-5zM15.2 2.5zm-.4.1zM2.9 9zm-.8 4.8zM3.3 18zM.9 15.7zm-.5-4.1zm.4-2zm2.8-5zm.1-.1zm5.5-3.4zm1.3-.2s0-.1 0 0zm5.8.4h.1-.1zm3.4 1.6s-.1 0 0 0c-.1 0 0 0 0 0zm2.5 2.5zm2.1 4.6zm-.2 5.8zm-2.8 5.3zm-4.5 3zm-.1-.3zm-.7-.2s.1 0 0 0c.1 0 0 0 0 0zm.6-.5zm5.1-4.7zm1-1.7zm0-.1zm.4-1zm.1-.7zM22 7.4zm-1.9-2.3zM18.7 4zm-6.4-1.7zM.8 16.3zm5-13.6zM11.5.6zm4.1.4zm6.2 3.7zm.5.7zm1.5 11.8zm-11.8 7zm-.8-.2zm0 0zm4.8-.5zm-8.2-1.3zm1.7.8zm3.8.5zm.2 0zm.6 0zm-.8.1zm-3.5-.4zm3.2.2zm-.3 0zm-5.9-1.6zm.1.1zm.2 0zm2.4.8zM16.8 3zM6.5 4.6zm-4.7 9.7zm-.4 0zm-.3-2.5zM1 9.9zm.1 6.4c-.1 0-.1 0 0 0-.1 0-.1 0 0 0zm3.8-13zm.8-.6zM13.5.6zm5.7 1.9zM24.5 15zm-8.4 9.2zM7 22.4zm8.2 1.3zm-7.3-1.6c0 .1 0 .1 0 0 0 .1 0 .1 0 0zm2.9 1zm12.4-9.3c0-.1 0-.1 0 0 0-.1 0-.1 0 0zm.2-1.6zM12.2 2.4zm-9.9 9c0-.1 0-.1 0 0zm.1 3.1zm.9 3.3zm-.7-.9zm-.9-2.1c.1 0 .1 0 0 0zM.5 10.7zm.3-1.4zm1.6-3.4zm4-3.7zM9.2 1c-.1 0-.1 0 0 0-.1.1-.1.1 0 0-.1.1-.1 0 0 0zm5.5-.3zm3.4 1.2zm3.3 2.3zm1.8 2.7zm.6 1.3zm.2.6zm-5.2 14.4zm-4.4 1zm-.9.1zm-2.2-.1zm-3.4-1zm5.9.7zm2-.4c.1 0 .1 0 0 0 .1 0 .1 0 0 0zm0-.1zm-7.5-.7zm-1.7-1.1zm4 1.5zm4.1 0zm0 .1zm.3-.1c-.1 0-.1 0 0 0-.1 0-.1 0 0 0-.1 0-.1 0 0 0zm1.9-.7zm6.4-9.4c0-.1 0-.1 0 0 0-.1 0-.1 0 0zm-3.7-8.1zM4 19zM1.2 9.6zm-.4 1.8zm.1 0zm7.2-10zM9.3 1zm2.5-.4zm9.9 4zm1 1.1zm1 2.3zm.5 8.3zM20.4 22zM19 23zm-1.7 1zm-2.5.2zm-1.8.1zm1-.6zm-7.7-2.4zm2 1zm1.1.4c-.1 0-.1 0 0 0zm13.7-8.1zm.1-1.4zM14.4 2.7s-.1 0 0 0c-.1 0-.1 0 0 0zM4.8 6.2c-.1 0-.1 0 0 0zm-3.3 8.5zm-.2 2.1zm.1.4zm-.1.4zM3.5 4.5zm.8-.7zm1.5-1.3zm7.3-2zm10.3 6.7zm1.2 7.6zm-2.7 5.8zm-6.2 3.5zm-1.5.2zM7.3 23zm7.4.7c.1 0 .1 0 0 0zm-4-.2zM8 22.6zm-1.1-1.1s.1.1 0 0c.1.1 0 0 0 0zm.7.4zm0 0zm4.8 1.3zm.3.1zm3.8-.7zm.4-.2zm5.3-5zm.9-6.1zm-2.8-5.8zm-2.5-2zm-3.3-.8zM6.1 5zM4.8 6.2zM3.1 9zm-.6 1.5zm-.2 2.9zm-.4 1.9zm0-.1zm-.4-6.1zm-.6 2.1v.1-.1zm.6 6.7zM6.7 2zm14.4 1.9zM16 24.4zm-4.9-.2zm-6.1-3zm3.4 1.6zm12.3-3.2zm.3-.4zm2.2-7.1zM16.1 3zm-.8-.2zM4.9 6.1c.1 0 .1 0 0 0zM2.8 9.8zM2.5 15zm1.6 4zM.8 11.7zm-.3 4c0-.1 0-.1 0 0zm-.3-3.5zm.2-1.7zm.7-2.3v.1-.1zM22.9 6zm0 .2zm1.8 7.8zm-3 6.8s.1 0 0 0zm-6.3 3.3zm-8.5-1.9zm3 .6zM23 10.6zM21.4 7c.1 0 .1 0 0 0zM13 2.6zM2.9 9.4zm.5 8.3zM20.5 22.1l.1-.1-.1.1-.1.1s-.1 0 0 0c-.1 0 0 0 .1-.1z"/><g><path class="st0" d="M21.8 12.3s0 .1 0 0V12.9s0 .1 0 0v.4c0 .2 0 .1-.1.2 0 .1 0 .2-.1.2 0 0 0 .1-.1.1v.2c0 .1-.1.3-.1.4 0 .1 0 .2-.1.3v.1c0 .1-.1.2-.1.3s-.1.1-.1.2c-.1.2-.1.4-.2.6-.1.1-.1.2-.1.3 0 0-.1.1-.1.2s-.1.2-.1.2c-.2.3-.4.6-.6.8-.2.3-.4.5-.6.7l-.4.4c-.2.2-.4.4-.6.5-.1.1-.2.1-.2.2l-.1.1c-.1.1-.2.1-.3.2l-.1.1s-.1 0-.1.1c-.1 0-.2.1-.3.2-.1.1-.3.1-.4.2 0 0-.1 0-.1.1-.2.1-.4.2-.6.2-.1 0-.1 0-.2.1h-.1c-.2 0-.3.1-.4.1h-.1c-.3.1-.5.1-.8.1H12.7c-.2 0-.5-.1-.7-.1-.3 0-.5-.1-.8-.2H11c-.2 0-.3-.1-.2 0H10.5c-.2-.1-.4-.1-.6-.2l-.6-.3c-.2-.1-.4-.2-.6-.4-.1 0-.2-.1-.2-.2h-.2L8 19c-.1 0-.1-.1-.2-.1 0 0-.1-.1-.2-.1l-.1-.1-.1-.1-.1-.1-.1-.1c-.1-.3-.2-.4-.3-.5l-.1-.1-.2-.2-.1-.1c0-.1-.1-.1-.1-.2l-.1-.1c0-.1-.1-.1-.1-.1-.1-.1-.2-.3-.2-.4v-.1c-.1-.1-.1-.2-.2-.3 0 0 0-.1-.1-.1 0 0-.1-.1-.1 0v-.1l-.1-.1v-.1c0 .1 0 0 0 0v.1l-.1-.1s0-.1-.1-.1c0-.1 0-.1-.1-.1 0-.1 0-.1-.1-.2v-.2C5 15.1 5 15 5 15c0-.1-.1-.1-.1-.2v-.1c-.1-.2-.1-.4-.1-.6v-2.5c0-.2 0-.3.1-.4v-.5c0-.1 0-.2.1-.3v-.2c0-.2.1-.3.1-.5l.1-.2v-.1c0-.1 0-.1.1-.2 0 0 0-.1.1-.1 0-.1.1-.1.1-.2l.3-.6c-.1-.3 0-.4.1-.5 0-.1.1-.2.1-.3s.1-.1.1-.2l.1-.1.3-.3.1-.1c.1-.1.1-.1.1-.2.3-.2.4-.4.7-.6.1 0 .1-.1.2-.2l.1-.1c.1-.1.3-.2.4-.3.2-.1.4-.3.6-.4.2-.1.3-.2.4-.2l.6-.3h.1c.2-.1.4-.1.5-.2.1 0 .2-.1.4-.1.3 0 .5-.2.8-.2H15c.1 0 .2.1.3.1.1 0 .2 0 .2.1.1 0 .1.1.2.1.2.1.4.1.6.2.1 0 .1.1.2.1 0 0 .1 0 .1.1.3.1.5.3.8.4.1.1.3.2.4.3l.4.3.3.3.3.3.4.4c.1.1.1.2.2.2 0 0 .1.1.1.2.2.3.4.5.5.8 0 0 .1.1.1.2l.1.2c.1.1.1.3.2.4 0 .1.1.1.1.2s.1.2.1.2l.2.6c0 .1.1.2.1.3.1.3.2.5.2.7s0 .2.1.2V11.2l.1.1c0-.1 0 0 .1 0v.1-1.2c0-.2-.1-.3-.1-.5s-.1-.3-.2-.5-.2-.5-.3-.7v-.1c.2 0 .2-.2.1-.3-.1-.1-.2-.3-.3-.4 0-.1-.1-.2-.1-.2-.2-.3-.4-.5-.6-.8l-.4-.4c-.2-.2-.5-.4-.7-.7-.1-.1-.2-.2-.3-.2-.2-.1-.3-.3-.5-.4s-.3-.2-.5-.3c0 0-.1 0-.1-.1l-.1-.1s.1 0 .1.1h.1c.1 0 .1.1.2.1.1.1.2.1.4.2h.1c.1 0 .3.2.4.3h.1c.1 0 .1.1.2.1s.1.1.1.1c.2.2.5.4.7.7l.1.1.1.1c.1.1.2.2.2.3v.1l.1.1.1.1c.2.2.3.4.4.7 0 .1.1.1.1.1v-.1s0 .1.1.1c0 .1.1.1 0 .1 0 0 0 .1.1.1l.1.1c0 .1 0 .1.1.2 0 .1.1.1.1.2v.1c0 .1.1.2.2.4V9c0 .1.1.1.1.2.1.2.1.3.1.5v.2c0 .1.1.3.1.4v.1c0 .2.1.5.1.7v.7c0 .1 0 .1 0 0 0 .1 0 0 .1 0v-.7c0-.2 0-.5-.1-.7 0-.2-.1-.5-.1-.7v-.2l-.1-.3c0-.1 0-.2-.1-.3v-.1l-.2-.7v-.2c-.2-.4-.4-.8-.7-1.2 0 0 0-.1-.1-.1v-.1l-.2-.2v.1-.1c-.3-.3-.6-.7-.9-1l-.2-.2c-.1 0-.1-.1-.2-.2-.1.1-.1.1-.2 0l-.4-.3c-.1 0-.1-.1-.2-.2s-.3-.2-.4-.2h.1s.1.1.1 0v-.1h.1c.1.1.1 0 .1 0V4c.1 0 .1.1 0 0l-.1-.1-.1-.1c-.1-.1 0 0 0-.1l-.1-.1c-.1-.1-.2-.1-.2-.1-.1 0-.1-.1-.2-.1h.1c.1.1 0 0 0 0h-.1l-.6-.3c-.1-.1-.3-.1-.5-.2-.1 0-.2-.1-.3-.1h-.1c.1.2 0 .2-.1.1-.1 0-.1 0-.2-.1h-.1c-.1 0-.1 0-.2-.1h-.1c.2.1.4.1.6.2h.2c-.1.1-.1.1-.2.1l-.6-.2c-.1-.1-.3-.1-.5-.1h-.1l-.4-.1h-2.2c-.3 0-.5.1-.8.1-.2 0-.4.1-.6.1-.1 0-.1 0-.2.1-.1 0-.1 0-.2.1-.1 0-.2 0-.2.1-.3-.1-.5 0-.6.1-.4.1-.7.3-1 .4h-.1c-.3.2-.7.4-1 .7l.1-.1s.1-.1.2-.1c0 0-.1.1-.2.1l-.4.3-.2.1c-.2.2-.4.4-.6.5l-.1.2h-.1c-.1 0-.1.1-.1.1l-.2.2-.4.5-.3.4c-.1.1-.2.2-.2.3 0 0 0 .1-.1.1-.1.1-.1.2-.2.3-.1.2-.3.4-.3.6-.2.3-.3.4-.4.7 0 0 0 .1-.1.2 0 .2-.1.3-.1.5-.1.2-.1.3-.2.5v.2c0 .1-.1.1-.1.1 0 .1 0 0-.1.1 0-.1 0-.1 0 0v.1-.1.2c0 .2-.1.3-.1.5v2.6c0 .2 0 .3.1.4 0 .2.1.4.1.6v.8c0 .1.1.2.1.3v.1c.1.3.2.6.4.9 0 .1.1.2.1.3.1.1.1.3.2.4s.1.2.2.3l.1.1.1.2c0 .1.1.2.2.2l.1.2.1.1.1.2.1.1c.2.2.4.4.5.6l.1.1c.2.1.3.3.5.5l.1.1.1.1s.1.1.2.1c.3.2.6.5.9.7l.1.1c.3.2.6.3.9.5h.2l.1.1c.2.1.4.1.6.2.1 0 .2.1.3.1.2.1.4.1.6.2h.1c.1 0 .2.1.3.1h.2c.2 0 .4.1.5.1h2.3c.3 0 .5-.1.8-.1h.2c.1 0 .1 0 .2-.1.1 0 .2-.1.3-.1h.1l.2-.1c.2-.1.4-.1.6-.2.1 0 .2-.1.3-.1 0 0 .1 0 .2-.1l.6-.3c.2-.1.4-.2.6-.4.4-.2.7-.5 1-.7.1-.1.2-.2.3-.2l.1-.1.3-.3.2-.2.1-.1c.1-.1.2-.3.4-.4.2-.3.4-.5.6-.8.1-.1.1-.2.1-.2l.2-.4c.2-.3.3-.6.4-.9 0-.1.1-.1.1-.2v-.1c0-.1 0-.1.1-.1v-.5c0-.1 0-.1 0 0l-.1.1c0-.1-.1.2-.1.2l-.1.2c-.1.2-.2.4-.3.5-.1.2-.1.1-.1.1l-.1.1v.2l.5.1c-.1.1-.1.2-.2.3-.1.2-.2.4-.4.5-.1.1-.2.3-.3.4-.1.1-.1.2-.2.2l-.1.1-.4.6-.5.5c-.1 0-.1.1-.2.1-.2.1-.3.3-.5.4l-.1.1-.1.1-.1.1h-.1c-.2.1-.4.2-.5.3-.1.1-.2.1-.3.1l.1-.1s.1 0 .1-.1l.1-.1s-.1 0 0 0c.2-.1.4-.2.6-.4.2-.1.4-.3.6-.5.1-.1.2-.2.4-.3l.5-.5v-.1l.1-.1s0-.1.1-.1c.1-.1.1-.1.1-.2.1-.1 0-.1.1-.1l.1-.1c.1-.1 0 0 0-.1v-.2c.1-.1.1-.1 0-.1v-.1c0-.1 0 0 0 0l.1-.1s0-.1 0 0l.1-.1c0-.1.1-.2.1-.3v-.2c0-.1 0 0 0 0v.1-.1c0-.1 0-.1 0 0v-.5c0-.1.1-.2.1-.3V16c.1-.1.1-.2.2-.3 0-.1.1-.2.1-.3l.3-.9c0-.1.1-.2 0-.2v-1c0-.2.1-.3.1-.5v-.7c.2.3.2.2.2.2zm-.4-1.6zm-.8-4.1zm-1.8-1.8zm-4.7-2.2zM4.9 14.8zm-.3-1.4zM20.8 8zm-2.1-2.6zM16.1 3s-.1 0 0 0zm-1.8-.4zM3.1 12.5zm.2 1.9zm16.5-7.2zm-9.1-4.4zm9.9 14.9zm-10-13.6zm10.9 4.8zm-.4-1.4zm-.7-.9zm-3.6-3.3zm5.6 12.6zm-.9-7zm-13-5.2zM5 18zm15.9.2zm.7-9.2zm.4 1.5zm.2 1.1zM21.7 9zm.5 2zm-.5-1.7zm-.2-.6zm.2.2zm.1.2zm0 .4zm-.5-1.1zm-2.7-3.6zM3.3 13.9s0 .1 0 0c0 .1 0 0 0 0zM7 20.1zm1.4 1zm11.4-1.6zm-.7.1s.1 0 0 0zm-8.8.8zM4.7 10.3zm0-.1zM21 7.5s0 .1 0 0zm-1.1-1.4zm.1.1zm-14.7.4zm2.8 14.3zM18.9 5.2zM3.5 10.8zm.5 5.3zm17.5 1.8zm-8.3 2.9zm-2 1.2zm2 .3zm4.7-1.2zm2.8-4.4c-.1 0 0 0 0 0zM4.8 15.3zm-.2-5.1zM15.4 3zm-4-.1zm5 18.9zM11 20.6zm-7.7-7.1zm12.4 8.4zm3-2.1zM4.5 13.7zm3.1-8.3zm8.6-1.1zm.7-.8zm-12 3.9zm12.6 13.8zm-9.7-.6zm7-17zm1.1.5zM11.3 22zm4.7-.3zm.7-.2zM3.8 15zm5.4 5.2zM4.7 9.1zM7 5.9zm9-2.5c-.1 0 0 0 0 0zM4.2 9.1s-.1 0 0 0c-.1 0 0 0 0 0zm.3 7.3c0 .1 0 0 0 0zM15 21.9c.1 0 0 0 0 0zm-.5-1zm-8-14.7c0-.1 0-.1 0 0zm8.9-2.7zM4.2 12.7zM9.6 4zm-.3 0zm.6-.3zm3.3-.5s.1 0 0 0zm.1-.1zm.5.1zm-2.1-.1zm.5-.1zM6.7 5.6zM5.4 18zM4.1 9.7zm0 .5zm0-.2zm1.3-3zm1.2-1.2zM4.2 10zm0 0zm.1-1s0 .1 0 0c0 .1 0 0 0 0zm1-1.3zm-.7 1.4c-.1 0-.1 0 0 0zm-.3.8c-.1 0-.1.1 0 0-.1 0-.1 0 0 0zM7.1 19zm-2.9-4.1zm.3 1.2c0 .1 0 .1 0 0zm7.2 5.7zM4 13.7zm-.2-.7zm0-.2zm.1.7c0-.1 0 0 0 0zm0 1zm-.1-.2c0-.1 0-.1 0 0zm0-1.7zm8.6 9.2zm1.6-.1zm-2-.6zm2.6.2zm-1.3.2zm-.5-.2zm-1.2.4zm.1 0zm2.6-.4zm-1.9 0zm-6.4-3zm1.1 1.2zm-.3-.4zm.4.3zm1.3 1zm.1.1zm3.8 1zm-2.3-.4zm-.6-.2zm.9.4zm-.3-.1zm0 0zm1.6.2zm0-.2zm.6.4zm-1.1 0zm-2.7-1zm-.8-.7zm-2.2-2.3zm8.6 3.9zm-.7.1zm-.3.1zm-.3-.1s-.1 0 0 0zm-.7 0zm-6.6-3.9zM8.2 20zm.8.5zm2.6.7h.1-.1zm2 .2zm.8-.2zm-2.1.5zm-.7 0zm-6.4-4.3zm.9.7zm6.2 3.7zm-5.9-2.9zm3 1.8zm3.7.7zm.2 0zm2.4-.3zm-1.1.4zm-5.7-.6zm-2.2-1.6zm-1.9-3.1zm.7 1.2zm.3.3zm5.9 3.4zm.2 0zm3.5-.1zm-.1.2zm-1.1.6zm-5.5-.9c-.1-.1-.1 0 0 0zm-.5-.3zm-4.6-6.8zm.3-.6zm.1.4zm.1.2zm1.4 3.6zm5.2 3.5zm4.1.1zm0 .4zm-.1.1zm-.2.1zM3.9 12.4zm.2 1.2zm.1.6zm2.6 4.5zm.4.4zm2.2 1.4zm2.3.5zm1.5.1c.1 0 .1 0 0 0 .1 0 .1 0 0 0zm3-.3zm-.3.3zm-2.8.7zM9 20.2zm2.9.8zm2.6 0zm2.7-.6c-.1 0-.1.1 0 0-.1.1-.1 0 0 0zM13.8 22zm-1.4-.1zm-3-.5zm-3.1-2.5zm-2.5-6.6zm.1-.3zm0-1.8zm3.8-5.3zM6.8 6zm10.7 14.2zm.3-.2zm.1-.1c.1 0 .1 0 0 0 .1 0 .1 0 0 0zm-3 1.8zm-1.8.2zm-1.4 0s-.1 0 0 0c-.1 0-.1 0 0 0zm-2.3-.5zm-.6-.4zM4.7 8.2zm.8-1.4zm1.7-1.6c.1-.1.1-.1 0 0 .1-.1.1-.1 0 0zm.7-.6zM12.2 3zM7.9 5zM5.5 7.4zm-1.2 2.8zM4 11.5zm.5 3.9zm.8 1.5zm4.8 3.9c-.1 0 0 0 0 0zm5 .7zm-3.3.4zm-1.9-.3zm-6.2-7.1zm.2-3.4zm7-7.9zm3.7-.1zm.9.1zM9.1 20.1s-.1 0 0 0zm9.6-.7zm-2.4 1.7zm-1.1.3zm-.1.3zm-4.2 0zm-1.4-.2zm-.9-.5zm-1.5-1.2c-.1 0-.1 0 0 0-.1 0-.1 0 0 0zM4 15.4zm-.4-3zm-.1-.9zm6.6-8zm1.1-.4zm1.5-.2zm.3 0zm1.5.2zM6.4 6.3zM5.3 7.9zm-.2.3zm-.7 1.7zm-.3 2c0 .1 0 0 0 0zm.1.5zm1.4 4.8zm2.7 2.4zm0 0zm.8.5zm2.6.7zm3.4 0zm3.4-1zm-3.1 1.9zm-4.2.2zm-2.1-.6zm-.7-.4zm-3-2.8zM7.1 5.2s-.1 0 0 0c-.1 0-.1 0 0 0zm2.1-1.5zm1-.4zm2.2-.4zm3.4.4zm-.7.4zm-6.6.9zM6.9 6zm-2.4 9zm7.3 5.8zm1.9.2zm6.1-2.5zm-6.1 3.6zM3.5 11.4zm.3-.9zm3-5.3zm.1.1zm.9-.8zM4.5 9.6zm0 .1zm5.8 10.8zm4.2.3zm3.5-.5zm-1.5.8zm0 .4zm-.3.2zm-5.8 0zm-2.2-.8zm-1.5-1.3c.1 0 0 0 0 0zm-3-4.5zm-.2-3.7zm12.8-8zm-1.3.3zm-4 0zM9.3 20.1zm8-.1zm-.1.7zm-1.3.8zm-2.1.7zm-2.9-.3zm-3.6-1.7zM7 20zm-1.1-.9zm-1.6-2.7zm-.5-6.6zm2.8-4.4zm8.9-2.3zm.5.8zm-1.6-.3zm-2.7-.1zM7 6zm-2.7 6.7zm7.3 8zm1.7.2zm2.7-.5zm1.1.4zm-1.2.8zm1.7-.4zm-5.1 1c.1 0 .1 0 0 0zm-.3 0zm-1.1-.3zm-.5 0zm-1-.3zm-.8-.4zm-2.7-1.9c.1.1.1.1.2.1-.1-.1-.2-.1-.2-.1zm-1.7-2.6zm-.9-5.6zm2-4.6zm0 0zm2.4-2.2zm2.1-1zm3.5-.6zm.5.1zm1.5.2zm1.1.4zm-.2.9zm-.2-.1zm-7 .2zm-4.9 6.3zm0 1.9zm.1.4zm4 6.5zm4.8 1.4zm6.5-2.8zm.1-.1c0 .1 0 .1 0 0zm.2.1zm-3.4 3zm-.1.4zm.9-.3zm.9-.4zm-2.1 1s-.1 0 0 0zm-2.6.4zm-1.9 0zm-4.5-2zm-2.4-3c0 .1 0 .1 0 0 0 .1 0 .1 0 0zm-.3-.4zm-1-2.3zm-.2-2.2zm3.6-7.4zm9.6-1.6s.1 0 0 0c.1 0 .1 0 0 0 .1 0 0 0 0 0zm.1.8zm-2-.4zm-1.4-.1zm-4.4 1zM6.5 6.5zm-.1.1zm-1.9 6.7zm2.1 4.6zm6.7 3zm7.4-2.4zm-6.4 3.8zm-1.7 0zm-2.8-.6zm-3.3-2c0 .1 0 .1 0 0 0 .1 0 .1 0 0zm-1.9-2.4zM5.1 7zm2.3-2.4zm1-.6zm1.4-.7c.1 0 .1 0 0 0zm.4-.2zm.3-.1zm4.6-.1zM16.6 4zM7.1 6zM5.8 7.4zm-1.3 3.1zm.1 4zm0 .2zm1.8 2.9zM9 19.8zm10.1-1.1c0-.1 0 0 0 0zm-.2.1zm.6-.5zm.6 0zM18.7 20zm-.2.6zm.5-.4zm1.4-1.3zm1.2-1.6zm.1.2zm-.1.2zm-7.7 4.6zm-2.6-.3zm0 .1zm-1.6-.4zM8 20.9zm-3.3-3.5zm-.6-8.7zm13.4-5zm-.4 0zm-.7.7zm-6.1-.3zM5.7 16.8zm.3.2zm10.5 3.2zm3.3-2.4zm1.7-3zm0 2.7zm-2 2.6zM18 21zm-4.4 1.3zm-.1 0zm-5.2-1.2zm-.8-.6zm-3.1-3.6s0-.1 0 0c0-.1 0-.1 0 0zm-1-2.9s0 .1 0 0c0 .1 0 .1 0 0zm0-2.8zm1.4-3.9zm3.4-3.2zm4.7-1.4zm4.3.8zm-.1.2zm.3.5zm-.7 0zm-5.6-.3zm-1.5.5zm-.1 0zm-.8.4zm-.4.3zm-3.6 5zm-.3 2.4zm.2 1.4zm2.7 4.7zm14.6-1.5zm-10.6 5c-.1 0-.1 0 0 0zM6.8 20zm-2.2-2.5zm-1.4-5.7zm.1-.7zm6-7.7zM20 6.2zm.4.6zm0-.1zm-3.1-2.4zm4 5.5zm-.5-1.5zm-1.9-2.5zm-.2-.1zm-.3-.3zm.5.4zM20.7 8zM19 6.1zm.2.1zm2.4 4.3c0 .1 0 .1 0 0 0 .1 0 0 0 0zm0 0zm-.1-.1zm-.8-1.9zM5.1 15.6zm6.8 5zm8.3-2.8zm.3.2zm-1.4 1.6zm-.9 1.2zm3.6-3.8zm-9.7 5.3zm-.8-.1zm-5.7-3.3zm-2.2-4.3zM7.6 4.3zm10.1-.5zm4.2 6.3zm-4-5.5zm3.3 5.2c0-.1 0-.1 0 0 0-.1 0-.1 0 0zm-1.1-2.3zM7.6 5.7s0 .1 0 0c0 .1 0 0 0 0zm-1 .9zm.8 12zm10.9.6c-.1 0 0 0 0 0zm1.7-1.9zm1.4-2.5zm-.2 1zm-.7 1.7zm-1.6 3.1zm-1 .6zm-2.8 1c-.1 0 0 0 0 0zm-4.5-.2zm-2.2-.9s0 .1 0 0c0 .1 0 .1 0 0 0 .1 0 .1 0 0zm-3.4-3zm-1.3-2.6zm-.6-3.2zm.6-2.6zM4 8.6zm.3-.4zm11.2-5.3zm3.2 1.9zm.5.5zm1.2 1.3zm1.4 2.5zm-3-3.8zm-1.4-.9zm0 .1zm3.9 4.7zm.3 1.6zm-1.4-3.1zm-2.3-2.4zm0-.1zm-.2 0zm-1.5-.8zM7.1 6.2zM4.6 13zm17.1.8zm-3.8 7s-.1 0 0 0c-.1 0-.1 0 0 0zm1.2-.9zm0 .1s0-.1 0 0c0-.1 0 0 0 0zm-9.9 1.6zm-1-.5zm-1.7-1.2zm-3.3-8zm.1-1.2zM4 8.8zm4.5-5.1zm5.4-1.1zm1.4.2zm1.6.5zm1.5 1.3zm1.1.9zm-.9-.2zm3.1 5.8zM21 9.4zm-.3-.8zM8.2 5.3zm-.9.8c-.1 0 0 0 0 0zm-1 11.1zm7.5 3.5c.1 0 .1 0 0 0 .1 0 .1 0 0 0zm6.8-3zm1.3-1.1zm.2-.3zm.3-.2zm-8.8 6.3zm-.9 0zm-1.6-.2zm-5.3-3zM3.7 9.4zm3.7-5zm4.9-1.8zm5.5 1.5zm1 .8zM22 9.6zm-3.8-4.7zm2.2 2.4zm1 2.1zm0 1.3c0-.1 0-.1 0 0 0-.1 0-.1 0 0zm-.2-.6zm0 0zm-1.9-3.6zm-.2-.2zm-2.6-1.8zm-.3-.1zm-5.9-.2zm-4.1 3zm-1.7 5zm.3 2.6zm1.5 2.3zm6.1 3.5zm1.4 0zm2.6-.5zm1.2-.6zm1.8-1.5zm1.3-.9zm-.1.1zm-3.2 3.7zm1.5-.9c.1 0 .1 0 0 0 .1 0 .1 0 0 0 .1 0 .1 0 0 0zm3.5-4.2zM10.3 22zm-7.2-9.3zm14.8-8.9c-.1 0-.1 0 0 0zm2.7 2.9zm1.7 5.3zm-1-2.9zm-8.9-5.3zm-.4.1zM6.7 6.7zM5.5 16zm.4.6zm7.8 4.1zm3.3-.9zm3.2-2.9zm1.4-3.2zm-2.3 6.1zm2.4-2.1zm-1.8 2.2zm-1.1.8zm-1.7.9zM3.3 10.4zm.1-.1zm3.5-5.6zm5.6-2.2zM18 4.3zm3.9 6zm-1.4-2.1zM5.9 7.7zm-1.2 2.9zM7 18.1zm9.7 1.8zm4.5-5.1zM14 2.5h-.1.2s.1 0 0 0c0 .1-.1 0-.1 0z"/></g><g><path class="st0" d="M18.7 10.3c0 .1-.1.2-.2.3-.1.2-.3.4-.5.5l-.3.3-.1.1v.3c0 .3 0 .6-.1.8-.1.4-.1.7-.3 1-.1.4-.3.7-.5 1-.2.4-.4.7-.7 1-.1.1-.2.3-.3.4l-.7.7c-.2.2-.4.3-.6.4-.3.2-.7.4-1.1.5-.4.1-.7.2-1.1.3H11c-.5 0-1-.1-1.4-.2s-.8-.3-1.2-.5c-.1-.1-.3-.1-.4-.2v-.1h1.2c.4-.1.8-.2 1.1-.3.3-.1.6-.3.8-.5h-.2c-.3 0-.5-.1-.7-.3-.2-.1-.4-.3-.6-.4-.2-.2-.3-.4-.4-.6 0-.1-.1-.1-.1-.2s0-.1.1-.1h.3c.2 0 .3 0 .5-.1-.1 0-.2 0-.3-.1-.1 0-.2-.1-.3-.1s-.2-.1-.2-.2c-.3-.2-.5-.4-.6-.7-.1-.2-.2-.5-.2-.8v-.3c0-.1 0-.1.1 0 .2.1.5.2.8.2h.1c-.1-.1-.2-.2-.3-.2-.2-.2-.3-.4-.4-.6-.1-.2-.2-.5-.2-.8s0-.6.1-.9c0-.1.1-.2.1-.3s.1-.1.1 0c.1.2.2.3.3.4l.6.6c.3.2.5.4.8.6.4.2.7.4 1.1.5.4.1.7.2 1.1.2h.4s.1 0 0-.1V11.2c0-.1 0-.3.1-.4.1-.3.2-.6.4-.8.2-.3.5-.5.8-.6.2-.1.3-.1.5-.2h.7c.2 0 .3.1.5.1.2.1.4.2.6.4l.1.1h.1c.3-.1.5-.1.8-.3.2-.1.3-.2.5-.2h.1v.1c0 .1-.1.3-.2.4-.1.2-.2.3-.4.5-.1.1-.2.2-.3.2.2 0 .3-.1.5-.1.4 0 .6 0 .8-.1zM11.2 17.9h.4-.4zM11.2 17.9c-.1 0-.1 0 0 0zM11.6 17.9c.1 0 .1 0 0 0zM15.3 9.3z"/></g></svg>